<svg width="24" height="24" viewBox="0 0 24 24" fill="none" xmlns="http://www.w3.org/2000/svg">
    <path d="M6.58681 17.4286H6.58594C6.58307 17.4286 6.58026 17.4277 6.57788 17.4261C6.57549 17.4245 6.57363 17.4223 6.57253 17.4196C6.57144 17.417 6.57115 17.414 6.57171 17.4112C6.57227 17.4084 6.57365 17.4058 6.57568 17.4038L6.57573 17.4038L17.4038 6.5757C17.4065 6.57296 17.4102 6.57143 17.4141 6.57143C17.418 6.57143 17.4217 6.57296 17.4244 6.5757C17.4271 6.57844 17.4287 6.58215 17.4287 6.58601C17.4287 6.58988 17.4271 6.59359 17.4244 6.59632L6.59635 17.4244L6.59594 17.4248C6.59474 17.426 6.59332 17.4269 6.59175 17.4276C6.59019 17.4282 6.58851 17.4286 6.58681 17.4286Z" stroke="#63676B" stroke-width="1.14286" stroke-linecap="round" stroke-linejoin="round"/>
    <path d="M17.4142 17.4286L17.4133 17.4286C17.4116 17.4286 17.4099 17.4282 17.4084 17.4276C17.4068 17.4269 17.4054 17.426 17.4042 17.4248L17.4038 17.4244L6.5757 6.59632C6.57296 6.59359 6.57143 6.58988 6.57143 6.58601C6.57143 6.58214 6.57296 6.57843 6.5757 6.5757C6.57843 6.57296 6.58214 6.57143 6.58601 6.57143C6.58988 6.57143 6.59359 6.57296 6.59632 6.5757L17.4244 17.4038L17.4244 17.4038C17.4265 17.4058 17.4278 17.4084 17.4284 17.4112C17.429 17.414 17.4287 17.417 17.4276 17.4196C17.4265 17.4223 17.4246 17.4245 17.4222 17.4261C17.4198 17.4277 17.417 17.4286 17.4142 17.4286Z" stroke="#63676B" stroke-width="1.14286" stroke-linecap="round" stroke-linejoin="round"/>
</svg>
