<svg width="14" height="14" viewBox="0 0 14 14" fill="none" xmlns="http://www.w3.org/2000/svg">
    <path d="M1.48903 7.82C1.33036 7.60242 1.25103 7.49334 1.19619 7.28334C1.15856 7.09641 1.15856 6.90385 1.19619 6.71692C1.25103 6.50634 1.33036 6.39725 1.48903 6.18025C2.35761 4.98734 4.26161 2.9165 7.00153 2.9165C9.74144 2.9165 11.6454 4.98734 12.514 6.17967C12.6727 6.39725 12.752 6.50634 12.8069 6.71634C12.8445 6.90327 12.8445 7.09582 12.8069 7.28275C12.752 7.49334 12.6727 7.60242 12.514 7.81942C11.6454 9.01234 9.74144 11.0832 7.00153 11.0832C4.26161 11.0832 2.35761 9.01234 1.48903 7.82Z" stroke="#00AEFF" stroke-linecap="round" stroke-linejoin="round"/>
    <path d="M7.0026 8.16634C7.31202 8.16634 7.60877 8.04342 7.82756 7.82463C8.04635 7.60584 8.16927 7.30909 8.16927 6.99967C8.16927 6.69026 8.04635 6.39351 7.82756 6.17472C7.60877 5.95592 7.31202 5.83301 7.0026 5.83301C6.69318 5.83301 6.39644 5.95592 6.17765 6.17472C5.95885 6.39351 5.83594 6.69026 5.83594 6.99967C5.83594 7.30909 5.95885 7.60584 6.17765 7.82463C6.39644 8.04342 6.69318 8.16634 7.0026 8.16634Z" stroke="#00AEFF" stroke-linecap="round" stroke-linejoin="round"/>
</svg>
