<svg width="24" height="24" viewBox="0 0 24 24" fill="none" xmlns="http://www.w3.org/2000/svg">
    <g id="dark mode / icon / M / search">
        <path id="Vector (Stroke)" fill-rule="evenodd" clip-rule="evenodd" d="M14.1955 15.1402C14.3078 15.176 14.4125 15.2373 14.5005 15.3253L18.0043 18.8291C18.0042 18.8291 18.0043 18.8291 18.0043 18.8291C18.118 18.9428 18.2673 19 18.4167 19C18.566 19 18.7154 18.9428 18.8291 18.8291C19.0572 18.601 19.0572 18.2323 18.8291 18.0043L15.3253 14.5004C15.2373 14.4125 15.176 14.3078 15.1402 14.1955C15.111 14.1036 15.0989 14.0066 15.1032 13.9094C15.11 13.7587 15.1564 13.6075 15.2401 13.4739C15.7737 12.6229 16.0833 11.6183 16.0833 10.5417C16.0833 10.5417 16.0833 10.5417 16.0833 10.5417C16.0833 7.4862 13.5972 5.00002 10.5417 5C10.5417 5 10.5417 5 10.5417 5C7.48618 5 5 7.48615 5 10.5416C5 13.5971 7.48618 16.0833 10.5417 16.0833C11.6183 16.0833 12.6229 15.7737 13.4739 15.2401C13.6075 15.1564 13.7587 15.11 13.9094 15.1032C14.0066 15.0989 14.1036 15.111 14.1955 15.1402ZM13.624 13.6438C13.6306 13.6372 13.6372 13.6306 13.6438 13.624C13.8744 13.3919 14.0793 13.1341 14.2536 12.8554C14.6737 12.1839 14.9167 11.3906 14.9167 10.5417C14.9167 10.5417 14.9167 10.5417 14.9167 10.5417C14.9167 8.129 12.9544 6.16665 10.5417 6.16665C10.5417 6.16665 10.5417 6.16665 10.5417 6.16665C8.12901 6.16666 6.16668 8.12898 6.16668 10.5416C6.16668 12.9543 8.129 14.9166 10.5417 14.9166C11.3906 14.9166 12.1838 14.6737 12.8554 14.2536C13.1341 14.0793 13.3919 13.8744 13.624 13.6438Z" fill="#63676B"/>
    </g>
</svg>
